<svg width="25" height="23" viewBox="0 0 25 23" fill="none" xmlns="http://www.w3.org/2000/svg">
<path d="M24.433 12.8L23.0997 14.1334L20.3663 11.4L21.6997 10.0667C21.8368 9.93234 22.0211 9.85708 22.213 9.85708C22.405 9.85708 22.5893 9.93234 22.7263 10.0667L24.433 11.7734C24.713 12.0534 24.713 12.52 24.433 12.8ZM11.4997 20.2534L19.5797 12.1734L22.313 14.9067L14.2463 23H11.4997V20.2534ZM11.4997 13.6667C5.60634 13.6667 0.833008 16.0534 0.833008 19V21.6667H8.83301V19.1467L14.1663 13.8134C13.2863 13.7067 12.393 13.6667 11.4997 13.6667ZM11.4997 0.333374C10.0852 0.333374 8.72863 0.895277 7.72844 1.89547C6.72824 2.89566 6.16634 4.25222 6.16634 5.66671C6.16634 7.0812 6.72824 8.43775 7.72844 9.43794C8.72863 10.4381 10.0852 11 11.4997 11C12.9142 11 14.2707 10.4381 15.2709 9.43794C16.2711 8.43775 16.833 7.0812 16.833 5.66671C16.833 4.25222 16.2711 2.89566 15.2709 1.89547C14.2707 0.895277 12.9142 0.333374 11.4997 0.333374Z" fill="#F1F1F1"/>
</svg>
