<svg width="27" height="26" viewBox="0 0 27 26" fill="none" xmlns="http://www.w3.org/2000/svg">
<path d="M3.16667 21.3333V2.66667H12.5V12H21.8333V13.3333C22.7667 13.3333 23.66 13.5067 24.5 13.8V8L16.5 0H3.16667C1.68667 0 0.5 1.18667 0.5 2.66667V21.3333C0.5 22.0406 0.780951 22.7189 1.28105 23.219C1.78115 23.719 2.45942 24 3.16667 24H14.3C14.0067 23.16 13.8333 22.2667 13.8333 21.3333H3.16667ZM15.1667 2L22.5 9.33333H15.1667V2ZM26.5 19L20.1667 25.3333L16.5 21.3333L18.0467 19.7867L20.1667 21.9067L24.9533 17.12L26.5 19Z" fill="#9B9B9B"/>
</svg>
