<svg width="26" height="26" viewBox="0 0 26 26" fill="none" xmlns="http://www.w3.org/2000/svg">
<path fill-rule="evenodd" clip-rule="evenodd" d="M6.11765 2.6C6.11765 1.91044 6.43992 1.24912 7.01356 0.761522C7.5872 0.273928 8.36522 0 9.17647 0H17.7198C18.531 0.000147257 19.3088 0.274172 19.8824 0.7618L25.1038 5.2C25.6774 5.68748 25.9998 6.34869 26 7.0382V18.2C26 18.8896 25.6777 19.5509 25.1041 20.0385C24.5305 20.5261 23.7524 20.8 22.9412 20.8H19.8824V23.4C19.8824 24.0896 19.5601 24.7509 18.9864 25.2385C18.4128 25.7261 17.6348 26 16.8235 26H3.05882C2.24757 26 1.46955 25.7261 0.895909 25.2385C0.322268 24.7509 0 24.0896 0 23.4V7.8C0 7.11044 0.322268 6.44912 0.895909 5.96152C1.46955 5.47393 2.24757 5.2 3.05882 5.2H6.11765V2.6ZM22.9412 18.2H9.17647V2.6H15.2941V7.15C15.2941 7.66717 15.5358 8.16316 15.966 8.52886C16.3963 8.89455 16.9798 9.1 17.5882 9.1H22.9412V18.2ZM22.308 6.5H18.3529V3.1382L22.308 6.5ZM6.11765 18.2V7.8H3.05882V23.4H16.8235V20.8H9.17647C8.36522 20.8 7.5872 20.5261 7.01356 20.0385C6.43992 19.5509 6.11765 18.8896 6.11765 18.2Z" fill="#9B9B9B"/>
</svg>
