<svg width="23" height="22" viewBox="0 0 23 22" fill="none" xmlns="http://www.w3.org/2000/svg">
<path d="M20.833 9.66671H12.833V1.66671C12.833 1.31309 12.6925 0.973947 12.4425 0.723899C12.1924 0.47385 11.8533 0.333374 11.4997 0.333374C11.1461 0.333374 10.8069 0.47385 10.5569 0.723899C10.3068 0.973947 10.1663 1.31309 10.1663 1.66671V9.66671H2.16634C1.81272 9.66671 1.47358 9.80718 1.22353 10.0572C0.973484 10.3073 0.833008 10.6464 0.833008 11C0.833008 11.3537 0.973484 11.6928 1.22353 11.9429C1.47358 12.1929 1.81272 12.3334 2.16634 12.3334H10.1663V20.3334C10.1663 20.687 10.3068 21.0261 10.5569 21.2762C10.8069 21.5262 11.1461 21.6667 11.4997 21.6667C11.8533 21.6667 12.1924 21.5262 12.4425 21.2762C12.6925 21.0261 12.833 20.687 12.833 20.3334V12.3334H20.833C21.1866 12.3334 21.5258 12.1929 21.7758 11.9429C22.0259 11.6928 22.1663 11.3537 22.1663 11C22.1663 10.6464 22.0259 10.3073 21.7758 10.0572C21.5258 9.80718 21.1866 9.66671 20.833 9.66671Z" fill="#9B9B9B"/>
</svg>
