<svg width="28" height="28" viewBox="0 0 28 28" fill="none" xmlns="http://www.w3.org/2000/svg">
<path d="M13 26C20.1797 26 26 20.1797 26 13C26 5.8203 20.1797 0 13 0C5.8203 0 0 5.8203 0 13C0 20.1797 5.8203 26 13 26Z" fill="#43424A"/>
<path d="M12.9988 24.2837C19.2308 24.2837 24.2828 19.2317 24.2828 12.9997C24.2828 6.76772 19.2308 1.7157 12.9988 1.7157C6.76686 1.7157 1.71484 6.76772 1.71484 12.9997C1.71484 19.2317 6.76686 24.2837 12.9988 24.2837Z" fill="#D2D3D5"/>
<path d="M13.0016 23.4007C18.7453 23.4007 23.4016 18.7445 23.4016 13.0007C23.4016 7.25695 18.7453 2.60071 13.0016 2.60071C7.2578 2.60071 2.60156 7.25695 2.60156 13.0007C2.60156 18.7445 7.2578 23.4007 13.0016 23.4007Z" fill="white"/>
<path d="M23.4 13.0007C23.4 15.8607 22.256 18.4607 20.384 20.3327L13 13.0007V2.60071C18.72 2.60071 23.4 7.28071 23.4 13.0007Z" fill="#EBEBEB"/>
<path d="M18.9804 18.9278L13.6764 12.6358L12.6364 13.6758L18.9804 18.9278ZM12.6364 3.48383H13.3644V6.39582H12.6364V3.48383ZM12.6364 19.6038H13.3644V22.5158H12.6364V19.6038ZM3.48438 12.6358H6.39637V13.3638H3.48438V12.6358ZM19.6044 12.6358H22.5164V13.3638H19.6044V12.6358ZM7.89293 4.92058L8.5237 4.55659L9.2517 5.81758L8.62093 6.18159L7.89293 4.92058ZM4.53893 8.56058L4.90293 7.93035L6.16394 8.65834L5.79993 9.28911L4.53893 8.56058ZM4.55609 17.4781L5.81657 16.749L6.18058 17.3793L4.92061 18.1083L4.55609 17.4781ZM7.93142 21.0993L8.65942 19.8383L9.28966 20.2023L8.56166 21.4633L7.93142 21.0993ZM16.7225 20.1373L17.3528 19.7733L18.0808 21.0343L17.4511 21.3983L16.7225 20.1373ZM19.8124 17.3834L20.1764 16.7527L21.4374 17.4812L21.0734 18.1119L19.8124 17.3834ZM19.7739 8.64639L21.0344 7.91839L21.3984 8.54863L20.1379 9.27663L19.7739 8.64639ZM16.7111 5.79783L17.4396 4.53735L18.0699 4.90135L17.3419 6.16235L16.7111 5.79783Z" fill="#3E4347"/>
<path d="M12.999 14.4555C13.8031 14.4555 14.455 13.8036 14.455 12.9995C14.455 12.1954 13.8031 11.5435 12.999 11.5435C12.1948 11.5435 11.543 12.1954 11.543 12.9995C11.543 13.8036 12.1948 14.4555 12.999 14.4555Z" fill="#3E4347"/>
</svg>
