<svg width="39" height="39" viewBox="0 0 39 39" fill="none" xmlns="http://www.w3.org/2000/svg">
<defs>
<linearGradient id="paint0_linear_2_125" x1="19.5" y1="0.75" x2="19.5" y2="38.25" gradientUnits="userSpaceOnUse">
<stop stop-color="#43424A"/>
<stop offset="1" stop-color="#BDBDBD"/>
</linearGradient>
</defs>
    <path fill-rule="evenodd" clip-rule="evenodd" d="M19.5 38.25C29.8556 38.25 38.25 29.8556 38.25 19.5C38.25 9.14438 29.8556 0.75 19.5 0.75C9.14438 0.75 0.75 9.14438 0.75 19.5C0.75 29.8556 9.14438 38.25 19.5 38.25ZM29.5706 13.5656C29.6583 13.4753 29.727 13.3682 29.7724 13.2507C29.8178 13.1332 29.8391 13.0078 29.8349 12.882C29.8308 12.7561 29.8014 12.6323 29.7484 12.5181C29.6954 12.4039 29.6199 12.3015 29.5265 12.217C29.433 12.1326 29.3235 12.0679 29.2045 12.0267C29.0855 11.9855 28.9594 11.9687 28.8338 11.9773C28.7081 11.986 28.5855 12.0198 28.4732 12.0768C28.361 12.1339 28.2613 12.213 28.1803 12.3094L16.95 24.7191L10.7719 18.8212C10.5921 18.6494 10.3515 18.5561 10.1028 18.5617C9.85425 18.5673 9.61806 18.6715 9.44625 18.8512C9.27444 19.031 9.18108 19.2717 9.1867 19.5203C9.19233 19.7689 9.29648 20.0051 9.47625 20.1769L16.3519 26.7394L17.0484 27.405L17.6944 26.6906L29.5706 13.5656Z" fill="url(#paint0_linear_2_125)"/>
</svg>
