<svg width="43" height="48" viewBox="0 0 43 48" fill="none" xmlns="http://www.w3.org/2000/svg">
<path d="M39.625 41C39.625 41.2984 39.5065 41.5845 39.2955 41.7955C39.0845 42.0065 38.7984 42.125 38.5 42.125H25.603C24.9588 43.3594 24.1421 44.4958 23.1775 45.5H38.5C39.6935 45.5 40.8381 45.0259 41.682 44.182C42.5259 43.3381 43 42.1935 43 41V18.113C42.9997 16.9196 42.5255 15.7752 41.6815 14.9315L28.5662 1.8185C28.5315 1.78616 28.4946 1.7561 28.456 1.7285C28.4282 1.70701 28.4012 1.6845 28.375 1.661C28.2202 1.51491 28.0556 1.37959 27.8822 1.256C27.8246 1.21883 27.7645 1.18575 27.7023 1.157L27.5942 1.103L27.4817 1.03775C27.3602 0.968 27.2365 0.896 27.1082 0.842C26.6602 0.663042 26.186 0.558172 25.7043 0.5315C25.6598 0.528603 25.6154 0.523345 25.5715 0.51575C25.5104 0.506318 25.4488 0.501056 25.387 0.5H11.5C10.3065 0.5 9.16193 0.974106 8.31802 1.81802C7.47411 2.66193 7 3.80653 7 5V21.8705C8.0825 21.4188 9.21577 21.1 10.375 20.921V5C10.375 4.70163 10.4935 4.41548 10.7045 4.2045C10.9155 3.99353 11.2016 3.875 11.5 3.875H25V14C25 15.1935 25.4741 16.3381 26.318 17.182C27.1619 18.0259 28.3065 18.5 29.5 18.5H39.625V41ZM28.375 6.39725L37.1005 15.125H29.5C29.2016 15.125 28.9155 15.0065 28.7045 14.7955C28.4935 14.5845 28.375 14.2984 28.375 14V6.39725ZM25 35.375C25 37.0001 24.6799 38.6093 24.058 40.1107C23.4361 41.6121 22.5246 42.9763 21.3754 44.1254C20.2263 45.2746 18.8621 46.1861 17.3607 46.808C15.8593 47.4299 14.2501 47.75 12.625 47.75C10.9999 47.75 9.3907 47.4299 7.88929 46.808C6.38789 46.1861 5.02368 45.2746 3.87455 44.1254C2.72543 42.9763 1.81389 41.6121 1.19199 40.1107C0.570089 38.6093 0.25 37.0001 0.25 35.375C0.25 32.0929 1.55379 28.9453 3.87455 26.6246C6.19532 24.3038 9.34295 23 12.625 23C15.9071 23 19.0547 24.3038 21.3754 26.6246C23.6962 28.9453 25 32.0929 25 35.375ZM12.625 27.5C12.3266 27.5 12.0405 27.6185 11.8295 27.8295C11.6185 28.0405 11.5 28.3266 11.5 28.625V37.625C11.5 37.9234 11.6185 38.2095 11.8295 38.4205C12.0405 38.6315 12.3266 38.75 12.625 38.75C12.9234 38.75 13.2095 38.6315 13.4205 38.4205C13.6315 38.2095 13.75 37.9234 13.75 37.625V28.625C13.75 28.3266 13.6315 28.0405 13.4205 27.8295C13.2095 27.6185 12.9234 27.5 12.625 27.5ZM12.625 43.5312C12.998 43.5312 13.3556 43.3831 13.6194 43.1194C13.8831 42.8556 14.0312 42.498 14.0312 42.125C14.0312 41.752 13.8831 41.3944 13.6194 41.1306C13.3556 40.8669 12.998 40.7188 12.625 40.7188C12.252 40.7188 11.8944 40.8669 11.6306 41.1306C11.3669 41.3944 11.2188 41.752 11.2188 42.125C11.2188 42.498 11.3669 42.8556 11.6306 43.1194C11.8944 43.3831 12.252 43.5312 12.625 43.5312Z" fill="white"/>
</svg>
