<svg width="37" height="46" viewBox="0 0 37 46" fill="none" xmlns="http://www.w3.org/2000/svg">
<path d="M8.9375 21.875C8.48995 21.875 8.06072 22.0528 7.74426 22.3693C7.42779 22.6857 7.25 23.1149 7.25 23.5625C7.25 24.0101 7.42779 24.4393 7.74426 24.7557C8.06072 25.0722 8.48995 25.25 8.9375 25.25C9.38505 25.25 9.81427 25.0722 10.1307 24.7557C10.4472 24.4393 10.625 24.0101 10.625 23.5625C10.625 23.1149 10.4472 22.6857 10.1307 22.3693C9.81427 22.0528 9.38505 21.875 8.9375 21.875ZM7.25 30.3125C7.25 29.8649 7.42779 29.4357 7.74426 29.1193C8.06072 28.8028 8.48995 28.625 8.9375 28.625C9.38505 28.625 9.81427 28.8028 10.1307 29.1193C10.4472 29.4357 10.625 29.8649 10.625 30.3125C10.625 30.7601 10.4472 31.1893 10.1307 31.5057C9.81427 31.8222 9.38505 32 8.9375 32C8.48995 32 8.06072 31.8222 7.74426 31.5057C7.42779 31.1893 7.25 30.7601 7.25 30.3125ZM14 23.5625C14 23.1149 14.1778 22.6857 14.4943 22.3693C14.8107 22.0528 15.2399 21.875 15.6875 21.875H22.559C23.0066 21.875 23.4358 22.0528 23.7522 22.3693C24.0687 22.6857 24.2465 23.1149 24.2465 23.5625C24.2465 24.0101 24.0687 24.4393 23.7522 24.7557C23.4358 25.0722 23.0066 25.25 22.559 25.25H15.6875C15.2399 25.25 14.8107 25.0722 14.4943 24.7557C14.1778 24.4393 14 24.0101 14 23.5625ZM15.6875 28.625C15.2399 28.625 14.8107 28.8028 14.4943 29.1193C14.1778 29.4357 14 29.8649 14 30.3125C14 30.7601 14.1778 31.1893 14.4943 31.5057C14.8107 31.8222 15.2399 32 15.6875 32H22.559C23.0066 32 23.4358 31.8222 23.7522 31.5057C24.0687 31.1893 24.2465 30.7601 24.2465 30.3125C24.2465 29.8649 24.0687 29.4357 23.7522 29.1193C23.4358 28.8028 23.0066 28.625 22.559 28.625H15.6875ZM5.5625 0.5C4.21984 0.5 2.93218 1.03337 1.98277 1.98277C1.03337 2.93217 0.5 4.21984 0.5 5.5625V34.8125C0.5 36.1552 1.03337 37.4428 1.98277 38.3922C2.93218 39.3416 4.21984 39.875 5.5625 39.875H25.8125C27.1552 39.875 28.4428 39.3416 29.3922 38.3922C30.3416 37.4428 30.875 36.1552 30.875 34.8125V15.9553C30.875 15.2904 30.7441 14.6321 30.4897 14.0179C30.2352 13.4037 29.8623 12.8456 29.3923 12.3755L18.9995 1.98275C18.0506 1.0339 16.7639 0.500585 15.422 0.5H5.5625ZM3.875 5.5625C3.875 5.11495 4.05279 4.68572 4.36926 4.36926C4.68572 4.05279 5.11495 3.875 5.5625 3.875H15.134V11.183C15.134 11.8478 15.2649 12.5061 15.5194 13.1203C15.7738 13.7345 16.1467 14.2926 16.6168 14.7627C17.5662 15.7121 18.8538 16.2455 20.1965 16.2455H27.5V34.8125C27.5 35.2601 27.3222 35.6893 27.0057 36.0057C26.6893 36.3222 26.2601 36.5 25.8125 36.5H5.5625C5.11495 36.5 4.68572 36.3222 4.36926 36.0057C4.05279 35.6893 3.875 35.2601 3.875 34.8125V5.5625ZM18.509 11.183V6.2645L25.1128 12.8705H20.1965C19.7489 12.8705 19.3197 12.6927 19.0033 12.3762C18.6868 12.0598 18.509 11.6306 18.509 11.183ZM11.1875 45.5C10.1403 45.5003 9.11885 45.1759 8.26376 44.5715C7.40867 43.967 6.76205 43.1123 6.413 42.125H25.8125C27.7519 42.125 29.6119 41.3546 30.9832 39.9832C32.3546 38.6119 33.125 36.7519 33.125 34.8125V16.1083L35.015 17.9983C35.9668 18.95 36.5 20.237 36.5 21.5803V34.8125C36.5 36.216 36.2236 37.6058 35.6865 38.9024C35.1494 40.1991 34.3621 41.3773 33.3697 42.3697C32.3773 43.3621 31.1991 44.1494 29.9024 44.6865C28.6058 45.2236 27.216 45.5 25.8125 45.5H11.1875Z" fill="white"/>
</svg>
