<svg width="44" height="48" viewBox="0 0 44 48" fill="none" xmlns="http://www.w3.org/2000/svg">
<path d="M40.125 41C40.125 41.2984 40.0065 41.5845 39.7955 41.7955C39.5845 42.0065 39.2984 42.125 39 42.125H26.103C25.4588 43.3594 24.6421 44.4958 23.6775 45.5H39C40.1935 45.5 41.3381 45.0259 42.182 44.182C43.0259 43.3381 43.5 42.1935 43.5 41V18.113C43.4997 16.9196 43.0255 15.7752 42.1815 14.9315L29.0662 1.8185C29.0315 1.78616 28.9946 1.7561 28.956 1.7285C28.9282 1.70701 28.9012 1.6845 28.875 1.661C28.7202 1.51491 28.5556 1.37959 28.3822 1.256C28.3246 1.21883 28.2645 1.18575 28.2023 1.157L28.0942 1.103L27.9817 1.03775C27.8602 0.968 27.7365 0.896 27.6082 0.842C27.1602 0.663042 26.686 0.558172 26.2043 0.5315C26.1598 0.528603 26.1154 0.523345 26.0715 0.51575C26.0104 0.506318 25.9488 0.501056 25.887 0.5H12C10.8065 0.5 9.66193 0.974106 8.81802 1.81802C7.97411 2.66193 7.5 3.80653 7.5 5V21.8705C8.5825 21.4188 9.71577 21.1 10.875 20.921V5C10.875 4.70163 10.9935 4.41548 11.2045 4.2045C11.4155 3.99353 11.7016 3.875 12 3.875H25.5V14C25.5 15.1935 25.9741 16.3381 26.818 17.182C27.6619 18.0259 28.8065 18.5 30 18.5H40.125V41ZM28.875 6.39725L37.6005 15.125H30C29.7016 15.125 29.4155 15.0065 29.2045 14.7955C28.9935 14.5845 28.875 14.2984 28.875 14V6.39725Z" fill="white"/>
<path d="M25.5 35.375C25.5 37.0001 25.1799 38.6093 24.558 40.1107C23.9361 41.6121 23.0246 42.9763 21.8754 44.1254C20.7263 45.2746 19.3621 46.1861 17.8607 46.808C16.3593 47.4299 14.7501 47.75 13.125 47.75C11.4999 47.75 9.8907 47.4299 8.38929 46.808C6.88789 46.1861 5.52368 45.2746 4.37455 44.1254C3.22543 42.9763 2.31389 41.6121 1.69199 40.1107C1.07009 38.6093 0.75 37.0001 0.75 35.375C0.75 32.0929 2.05379 28.9453 4.37455 26.6246C6.69532 24.3038 9.84295 23 13.125 23C16.4071 23 19.5547 24.3038 21.8754 26.6246C24.1962 28.9453 25.5 32.0929 25.5 35.375ZM20.6715 30.0785C20.567 29.9737 20.4429 29.8906 20.3062 29.8339C20.1695 29.7772 20.023 29.748 19.875 29.748C19.727 29.748 19.5805 29.7772 19.4438 29.8339C19.3071 29.8906 19.183 29.9737 19.0785 30.0785L10.875 38.2842L7.1715 34.5785C6.96026 34.3673 6.67375 34.2486 6.375 34.2486C6.07625 34.2486 5.78974 34.3673 5.5785 34.5785C5.36725 34.7897 5.24858 35.0763 5.24858 35.375C5.24858 35.6737 5.36725 35.9603 5.5785 36.1715L10.0785 40.6715C10.183 40.7763 10.3071 40.8594 10.4438 40.9161C10.5805 40.9728 10.727 41.002 10.875 41.002C11.023 41.002 11.1695 40.9728 11.3062 40.9161C11.4429 40.8594 11.567 40.7763 11.6715 40.6715L20.6715 31.6715C20.7763 31.567 20.8594 31.4429 20.9161 31.3062C20.9728 31.1695 21.002 31.023 21.002 30.875C21.002 30.727 20.9728 30.5805 20.9161 30.4438C20.8594 30.3071 20.7763 30.183 20.6715 30.0785Z" fill="white"/>
</svg>
